<?xml version="1.0" standalone="no"?>
<!DOCTYPE svg PUBLIC "-//W3C//DTD SVG 20010904//EN"
 "http://www.w3.org/TR/2001/REC-SVG-20010904/DTD/svg10.dtd">
<svg version="1.0" xmlns="http://www.w3.org/2000/svg"
 width="500.000000pt" height="500.000000pt" viewBox="0 0 500.000000 500.000000"
 preserveAspectRatio="xMidYMid meet">
<metadata>
Created by potrace 1.14, written by Peter Selinger 2001-2017
</metadata>
<g transform="translate(0.000000,500.000000) scale(0.100000,-0.100000)"
fill="#000000" stroke="none">
<path d="M0 2500 l0 -2500 1113 0 c945 1 1116 3 1137 15 32 18 40 18 40 0 0
-13 157 -15 1355 -15 l1355 0 0 2500 0 2500 -2500 0 -2500 0 0 -2500z m2657
2010 c99 -14 125 -30 206 -129 9 -12 24 -53 32 -92 19 -88 19 -100 1 -93 -11
4 -13 0 -9 -16 3 -12 1 -25 -6 -30 -9 -5 -7 -16 8 -41 12 -19 21 -51 21 -71 0
-20 4 -39 10 -43 5 -3 7 -12 4 -19 -3 -8 1 -27 9 -43 29 -55 30 -90 7 -139
-13 -26 -33 -49 -46 -54 -48 -18 -72 -75 -84 -200 -12 -113 -12 -116 13 -170
l25 -55 193 -95 c106 -52 278 -138 383 -190 l191 -96 58 -79 c195 -269 311
-542 348 -824 14 -113 33 -197 66 -306 65 -212 73 -250 73 -342 0 -119 -46
-231 -152 -365 -29 -38 -140 -128 -157 -128 -5 0 -18 39 -30 86 -12 47 -32
112 -45 144 -45 110 -144 230 -191 230 -21 0 -27 7 -37 46 -10 37 -20 51 -50
67 -45 26 -57 47 -98 167 -18 52 -36 100 -40 105 -4 6 -16 35 -26 65 l-18 55
-8 -35 c-5 -19 -5 -149 -2 -287 l7 -253 -46 6 c-32 5 -70 0 -129 -16 -83 -22
-109 -24 -370 -17 -45 2 -62 -3 -85 -21 -15 -12 -71 -55 -123 -94 -130 -98
-240 -188 -240 -197 0 -20 120 -64 194 -72 97 -10 112 -21 73 -55 -33 -28 -29
-40 32 -75 80 -49 126 -114 101 -144 -23 -28 -100 -12 -100 20 0 8 -7 15 -15
15 -7 0 -18 6 -22 14 -4 7 -26 23 -48 34 -22 11 -51 29 -65 41 -14 11 -29 24
-35 28 -10 8 -81 30 -125 39 -24 5 -24 5 -6 -10 12 -10 17 -23 13 -36 -4 -18
3 -27 39 -48 25 -15 82 -54 126 -87 44 -33 102 -74 128 -91 85 -57 111 -112
71 -148 -17 -16 -22 -16 -55 -2 -20 8 -36 22 -36 30 0 9 -7 16 -15 16 -9 0
-21 11 -27 25 -8 17 -19 25 -37 25 -34 0 -132 60 -129 80 1 8 -1 21 -6 28 -6
10 -11 9 -21 -5 -13 -17 -15 -17 -42 8 -62 56 -133 99 -133 80 0 -11 124 -122
203 -182 117 -88 133 -99 164 -115 38 -19 62 -67 43 -89 -26 -31 -117 -4 -104
30 4 10 0 15 -14 15 -11 0 -22 4 -24 8 -1 4 -33 25 -70 45 -45 25 -68 44 -68
56 0 28 -35 54 -61 46 -19 -6 -21 -4 -16 14 4 17 1 21 -17 21 -19 0 -62 22
-76 40 -11 14 -70 31 -81 24 -7 -4 -10 -3 -5 4 6 10 -30 52 -46 52 -14 0 4
-29 22 -35 12 -4 16 -12 13 -25 -4 -16 0 -20 23 -20 22 0 45 -18 114 -89 48
-52 100 -96 120 -104 37 -15 90 -69 90 -92 0 -7 -7 -16 -16 -19 -18 -7 -84 19
-84 33 0 6 -9 11 -20 11 -11 0 -23 7 -26 15 -4 8 -12 15 -19 15 -22 0 -64 40
-58 55 3 9 -1 15 -10 15 -9 0 -28 16 -43 35 -15 19 -33 34 -41 33 -8 -2 -27
13 -41 31 -15 19 -21 32 -14 27 24 -14 12 18 -15 40 -20 16 -23 23 -13 29 9 6
11 4 5 -5 -6 -9 -4 -11 4 -6 10 6 9 12 -2 24 -8 10 -17 26 -21 37 -7 19 -8 19
-20 3 -18 -25 -30 -22 -60 13 -14 17 -30 28 -35 24 -5 -3 -12 -1 -16 5 -4 7
-13 7 -26 0 -11 -6 -25 -8 -32 -4 -32 19 46 -54 111 -102 62 -48 90 -84 64
-84 -21 0 -261 85 -344 121 -118 52 -142 69 -157 116 -26 79 -75 146 -137 188
-32 22 -120 100 -194 174 -74 74 -146 137 -159 140 -29 8 -21 -7 -121 236 -40
97 -49 181 -25 245 31 86 76 246 135 480 97 388 135 481 303 732 103 154 103
154 292 223 50 18 158 60 240 93 132 53 189 72 297 96 17 4 29 16 36 36 7 18
18 30 29 31 54 3 80 -4 103 -30 14 -15 39 -33 55 -39 27 -11 28 -11 12 2 -10
8 -14 17 -9 20 13 8 40 -2 71 -26 13 -10 37 -18 52 -18 30 0 39 14 17 24 -9 3
-5 11 11 23 13 10 38 32 55 48 17 17 52 41 78 53 25 12 49 26 53 31 3 6 21 18
40 27 35 16 48 44 20 44 -8 0 -15 -7 -15 -15 0 -8 -4 -15 -10 -15 -5 0 -10 5
-10 10 0 27 -147 56 -181 37 -25 -15 -116 19 -122 45 -9 31 -3 35 53 37 28 0
59 5 70 11 10 5 30 10 43 10 14 0 30 6 36 14 10 12 5 15 -26 20 -21 3 -57 5
-81 5 -46 -1 -105 18 -96 32 24 39 163 59 234 34 23 -8 52 -15 64 -14 11 0 -6
10 -39 20 -61 20 -221 28 -267 13 -16 -5 -20 -3 -15 10 9 22 -7 28 -37 14 -25
-11 -29 -8 -76 43 -27 30 -50 60 -50 68 0 8 -5 29 -12 48 -16 44 -6 50 39 23
30 -18 47 -21 86 -17 60 8 100 36 134 95 14 26 32 54 39 62 6 8 14 24 15 34 3
14 19 -3 57 -64 29 -45 55 -80 58 -77 3 2 -6 21 -20 41 -14 21 -30 61 -37 91
-9 40 -17 55 -33 59 -36 10 -46 7 -46 -14 0 -11 -4 -28 -9 -38 -5 -9 -14 -29
-20 -44 -7 -19 -18 -28 -34 -28 -12 0 -31 -6 -42 -13 -15 -11 -36 -12 -85 -6
-108 13 -125 20 -128 59 -4 40 -30 83 -47 76 -8 -3 -11 2 -8 15 6 20 47 27 58
9 3 -5 1 -10 -4 -10 -6 0 -11 -10 -11 -22 1 -22 1 -22 21 5 30 40 41 34 37
-20 -3 -43 -1 -48 18 -51 17 -2 23 3 27 25 3 15 10 45 15 66 l10 37 -40 6
c-27 5 -38 11 -34 20 6 15 -29 38 -44 29 -6 -4 -10 8 -10 26 0 31 23 69 43 69
5 0 22 9 39 21 46 33 156 69 212 69 28 0 57 4 65 9 14 9 43 7 158 -9z m-447
-480 c0 -5 -2 -10 -4 -10 -3 0 -8 5 -11 10 -3 6 -1 10 4 10 6 0 11 -4 11 -10z
m135 0 c-8 -14 -72 -24 -92 -14 -14 6 -7 9 27 14 70 11 72 11 65 0z m-315
-199 c0 -15 6 -33 13 -40 10 -11 8 -11 -10 -2 -17 9 -23 20 -23 47 0 21 4 33
10 29 6 -3 10 -19 10 -34z m208 -253 c7 -7 12 -21 12 -31 0 -10 9 -21 20 -24
22 -6 28 -23 8 -23 -16 0 -27 8 -57 42 -30 34 -14 67 17 36z m-738 -2993 c0
-8 11 -22 25 -31 14 -9 23 -19 20 -22 -2 -3 0 -11 6 -19 24 -28 -35 -8 -73 24
-13 12 -15 20 -6 39 12 27 28 32 28 9z m467 -29 c0 -8 -6 -12 -14 -9 -7 3 -13
11 -13 19 0 7 6 11 13 8 8 -3 14 -11 14 -18z m75 -321 c-5 -31 -52 -37 -52 -7
0 24 9 32 35 32 18 0 21 -4 17 -25z m143 -35 c4 -6 -7 -10 -27 -10 -25 0 -29
3 -18 10 19 13 37 13 45 0z m45 -65 c0 -9 8 -18 18 -22 41 -15 44 -26 11 -40
-39 -16 -40 -16 -33 1 4 10 -6 15 -37 18 -35 3 -46 0 -64 -20 -26 -28 -60 -26
-60 3 0 14 16 28 55 47 63 31 110 36 110 13z"/>
<path d="M2630 4280 c-8 -5 -10 -10 -5 -10 6 0 17 5 25 10 8 5 11 10 5 10 -5
0 -17 -5 -25 -10z"/>
<path d="M2667 4083 c-10 -15 10 -35 29 -31 26 5 24 32 -3 36 -11 2 -23 -1
-26 -5z"/>
<path d="M2556 3965 c-20 -8 -40 -10 -60 -4 -17 5 -57 9 -88 9 -55 0 -58 -1
-58 -25 0 -14 9 -30 20 -37 13 -9 18 -19 14 -35 -8 -30 5 -29 31 1 13 15 40
28 70 35 28 5 62 13 78 17 17 4 27 2 27 -5 0 -6 9 -11 20 -11 24 0 27 32 4 54
-18 19 -20 19 -58 1z"/>
<path d="M2905 3847 c-4 -10 -5 -21 -1 -24 10 -10 18 4 13 24 -4 17 -4 17 -12
0z"/>
<path d="M1461 1823 c-13 -32 -39 -83 -57 -115 -19 -31 -34 -67 -34 -81 0 -31
49 -167 60 -167 5 0 11 44 15 98 4 53 18 133 31 176 25 84 29 113 16 134 -6 8
-16 -8 -31 -45z"/>
<path d="M1641 797 c-1 -26 16 -55 40 -68 19 -10 20 -9 9 10 -6 12 -15 21 -20
21 -4 0 -13 12 -18 28 -7 18 -11 21 -11 9z"/>
<path d="M1947 700 c3 -12 12 -20 22 -18 24 5 19 33 -6 36 -17 3 -20 -1 -16
-18z"/>
</g>
</svg>
